<?xml version="1.0" encoding="UTF-8"?>
<svg width="64" height="64" viewBox="0 0 64 64" fill="none" xmlns="http://www.w3.org/2000/svg">
  <!-- Boxes -->
  <rect x="4" y="8" width="16" height="12" rx="2" fill="#4A90E2"/>
  <rect x="4" y="28" width="16" height="12" rx="2" fill="#7ED321"/>
  <rect x="4" y="48" width="16" height="12" rx="2" fill="#F5A623"/>
  
  <rect x="44" y="18" width="16" height="12" rx="2" fill="#50E3C2"/>
  <rect x="44" y="38" width="16" height="12" rx="2" fill="#BD10E0"/>

  <!-- Arrows -->
  <line x1="20" y1="14" x2="44" y2="24" stroke="#999" stroke-width="2" marker-end="url(#arrowhead)"/>
  <line x1="20" y1="34" x2="44" y2="44" stroke="#999" stroke-width="2" marker-end="url(#arrowhead)"/>
  <line x1="12" y1="20" x2="12" y2="28" stroke="#999" stroke-width="2"/>
  <line x1="12" y1="40" x2="12" y2="48" stroke="#999" stroke-width="2"/>

  <!-- Gear Icon -->
  <g transform="translate(28,26) scale(0.6)">
    <circle cx="20" cy="20" r="8" fill="#333"/>
    <path fill="#333" d="M20 0v6M20 34v6M0 20h6M34 20h6M6.7 6.7l4.2 4.2M31.1 31.1l4.2 4.2M6.7 33.3l4.2-4.2M31.1 8.9l4.2-4.2" stroke="#333" stroke-width="2"/>
  </g>

  <!-- Arrowhead marker -->
  <defs>
    <marker id="arrowhead" markerWidth="6" markerHeight="6" refX="0" refY="3" orient="auto">
      <polygon points="0 0, 6 3, 0 6" fill="#999"/>
    </marker>
  </defs>
</svg>
